<?xml version="1.0" encoding="UTF-8"?>
<svg id="Layer_1" data-name="Layer 1" xmlns="http://www.w3.org/2000/svg" viewBox="0 0 165.98 170.91">
  <defs>
    <style>
      .cls-1 {
        fill: #5566af;
      }
    </style>
  </defs>
  <path class="cls-1" d="m0,0c7.31,8.4,15.07,18.66,22.1,30.86,3.93,6.82,7.13,13.35,9.74,19.45,15.87-9.6,31.73-19.19,47.6-28.79-10.5-4.62-23.43-9.5-38.64-13.62C25.61,3.79,11.73,1.41,0,0Z"/>
  <path class="cls-1" d="m34.62,56.71c3.38,9.16,6.86,22,7.21,37.52.41,18.02-3.55,32.78-7.21,42.7,25.28-16.42,50.55-32.85,75.83-49.27l10.71,12.79-54.81,36.48h44.71l44.71-28.01c-2.08-7.19-5.09-15.34-9.48-24.03-7.36-14.58-16.3-26.08-24.11-34.58-15.73,10.2-31.46,20.4-47.19,30.6l.21-20.57,32.35-21.78-20.61-13.4-52.34,31.55Z"/>
  <path class="cls-1" d="m122.09,136.93c12.02-7.35,24.04-14.7,36.06-22.04.76,7.35,1.51,14.7,2.27,22.04h-38.33Z"/>
</svg>